<?xml version="1.0" encoding="iso-8859-1"?>
<!-- Generator: Adobe Illustrator 19.0.0, SVG Export Plug-In . SVG Version: 6.00 Build 0)  -->
<svg version="1.1" id="Layer_1" xmlns="http://www.w3.org/2000/svg" xmlns:xlink="http://www.w3.org/1999/xlink" x="0px" y="0px"
	 viewBox="0 0 511.999 511.999" style="enable-background:new 0 0 511.999 511.999;" xml:space="preserve">
<g>
	<path style="fill:#FFF3E6;" d="M172.752,27.264c0,0,36.179,16.549,47.962,48.892c5.194,14.273,4.779,29.225,2.691,41.498
		c-10.991,2.578-21.504,6.438-31.35,11.418c-9.494-8.073-19.429-19.253-24.622-33.525C155.662,63.191,172.752,27.264,172.752,27.264
		z"/>
	<path style="fill:#FFF3E6;" d="M161.334,99.081c9.771,11.632,14.487,25.842,16.725,38.09c-9.331,6.124-17.894,13.33-25.515,21.441
		c-11.682-4.313-24.861-11.456-34.632-23.088c-22.145-26.383-18.372-65.995-18.372-65.995S139.189,72.698,161.334,99.081z"/>
	<path style="fill:#FFF3E6;" d="M113.372,140.931c13.154,7.583,22.459,19.315,28.747,30.067c-6.64,8.878-12.261,18.548-16.687,28.86
		c-12.449-0.05-27.25-2.226-40.404-9.834c-29.828-17.228-39.838-55.733-39.838-55.733S83.556,123.715,113.372,140.931z"/>
	<path style="fill:#FFF3E6;" d="M82.613,196.651c14.952,2.628,27.703,10.463,37.285,18.41c-3.156,10.488-5.131,21.478-5.759,32.846
		c-11.72,4.188-26.395,7.218-41.36,4.565c-33.915-5.973-56.5-38.732-56.5-38.732S48.71,190.678,82.613,196.651z"/>
	<path style="fill:#FFF3E6;" d="M72.779,259.54c14.964-2.653,29.64,0.365,41.36,4.565c0.629,11.355,2.603,22.346,5.759,32.846
		c-9.582,7.935-22.334,15.769-37.285,18.41c-33.903,5.973-66.334-17.102-66.334-17.102S38.864,265.513,72.779,259.54z"/>
	<path style="fill:#FFF3E6;" d="M85.028,321.976c13.154-7.595,27.955-9.771,40.404-9.834c4.426,10.324,10.06,19.982,16.687,28.873
		c-6.288,10.739-15.593,22.459-28.747,30.055c-29.816,17.215-68.183,6.627-68.183,6.627S55.199,339.191,85.028,321.976z"/>
	<path style="fill:#FFF3E6;" d="M152.544,353.389c7.621,8.111,16.184,15.317,25.515,21.428
		c-2.238,12.248-6.954,26.458-16.725,38.103c-22.145,26.383-61.794,29.552-61.794,29.552s-3.773-39.612,18.372-65.982
		C127.683,364.845,140.861,357.702,152.544,353.389z"/>
	<path style="fill:#FFF3E6;" d="M192.055,382.928c9.846,4.98,20.359,8.828,31.35,11.406c2.087,12.273,2.502,27.225-2.691,41.498
		c-11.783,32.356-47.962,48.905-47.962,48.905s-17.09-35.927-5.319-68.296C172.626,402.168,182.561,391.001,192.055,382.928z"/>
	<path style="fill:#FFF3E6;" d="M272.662,397.112c6.162,10.84,11.682,24.748,11.682,39.939c0,34.456-28.344,62.373-28.344,62.373
		s-28.344-27.917-28.344-62.373c0-15.191,5.52-29.099,11.682-39.939c5.458,0.654,11.028,0.981,16.662,0.981
		C261.634,398.093,267.204,397.766,272.662,397.112z"/>
	<path style="fill:#FFF3E6;" d="M344.567,416.441c11.783,32.369-5.307,68.296-5.307,68.296s-36.179-16.549-47.962-48.905
		c-5.194-14.273-4.779-29.225-2.704-41.498c11.003-2.578,21.504-6.426,31.35-11.418
		C329.426,390.976,339.361,402.168,344.567,416.441z"/>
	<path style="fill:#FFF3E6;" d="M359.456,353.389c11.682,4.313,24.874,11.456,34.645,23.101
		c22.145,26.37,18.372,65.982,18.372,65.982s-39.662-3.169-61.794-29.552c-9.771-11.645-14.499-25.855-16.725-38.103
		C343.284,368.705,351.848,361.5,359.456,353.389z"/>
	<path style="fill:#FFF3E6;" d="M386.568,312.142c12.449,0.063,27.25,2.238,40.404,9.834c29.841,17.215,39.838,55.721,39.838,55.721
		s-38.354,10.588-68.183-6.627c-13.154-7.595-22.459-19.315-28.747-30.055C376.508,332.124,382.142,322.466,386.568,312.142z"/>
	<path style="fill:#FFF3E6;" d="M439.233,259.54c33.915,5.973,56.488,38.719,56.488,38.719s-32.419,23.075-66.334,17.102
		c-14.952-2.641-27.716-10.5-37.285-18.423c3.156-10.5,5.131-21.491,5.759-32.834C409.581,259.905,424.268,256.887,439.233,259.54z"
		/>
	<path style="fill:#FFF3E6;" d="M495.721,213.741c0,0-22.572,32.758-56.488,38.732c-14.964,2.653-29.652-0.377-41.372-4.565
		c-0.629-11.355-2.59-22.359-5.759-32.834c9.57-7.935,22.334-15.794,37.285-18.423C463.302,190.678,495.721,213.741,495.721,213.741
		z"/>
	<path style="fill:#FFF3E6;" d="M398.628,140.931c29.828-17.215,68.183-6.64,68.183-6.64s-9.997,38.505-39.838,55.733
		c-13.154,7.608-27.955,9.783-40.404,9.834c-4.426-10.312-10.048-19.982-16.687-28.86
		C376.168,160.246,385.474,148.514,398.628,140.931z"/>
	<path style="fill:#FFF3E6;" d="M412.473,69.529c0,0,3.773,39.612-18.372,65.995c-9.771,11.632-22.962,18.775-34.645,23.088
		c-7.608-8.111-16.172-15.291-25.502-21.441c2.226-12.248,6.954-26.458,16.725-38.09C372.811,72.698,412.473,69.529,412.473,69.529z
		"/>
	<path style="fill:#FFF3E6;" d="M339.26,27.264c0,0,17.09,35.927,5.307,68.283c-5.206,14.273-15.141,25.465-24.622,33.538
		c-9.846-4.992-20.347-8.853-31.35-11.431c-2.075-12.273-2.49-27.225,2.704-41.498C303.081,43.813,339.26,27.264,339.26,27.264z"/>
	<path style="fill:#FFF3E6;" d="M256,12.576c0,0,28.344,27.917,28.344,62.373c0,15.191-5.521,29.112-11.682,39.926
		c-5.458-0.654-11.028-0.981-16.662-0.981c-5.634,0-11.204,0.327-16.662,0.981c-6.162-10.815-11.682-24.735-11.682-39.926
		C227.655,40.493,256,12.576,256,12.576z"/>
</g>
<path style="fill:#F0C419;" d="M256,113.894c5.634,0,11.204,0.327,16.662,0.981c5.407,0.616,10.727,1.559,15.933,2.779
	c11.003,2.578,21.504,6.438,31.35,11.431c4.841,2.414,9.519,5.131,14.009,8.086c9.331,6.149,17.895,13.33,25.502,21.441
	c3.71,3.911,7.193,8.061,10.425,12.387c6.64,8.878,12.261,18.548,16.687,28.86c2.138,4.929,3.986,10.022,5.533,15.216
	c3.169,10.475,5.131,21.478,5.759,32.834c0.163,2.666,0.239,5.37,0.239,8.086c0,2.716-0.075,5.445-0.239,8.111
	c-0.629,11.343-2.603,22.334-5.759,32.834c-1.547,5.194-3.408,10.274-5.533,15.203c-4.426,10.324-10.06,19.982-16.687,28.873
	c-3.244,4.313-6.715,8.463-10.425,12.374c-7.608,8.111-16.172,15.317-25.502,21.428c-4.489,2.955-9.167,5.671-14.009,8.098
	c-9.846,4.992-20.347,8.84-31.35,11.418c-5.206,1.22-10.525,2.163-15.933,2.779c-5.458,0.654-11.028,0.981-16.662,0.981
	c-5.634,0-11.204-0.327-16.662-0.981c-5.407-0.616-10.727-1.559-15.933-2.779c-10.991-2.578-21.504-6.426-31.35-11.406
	c-4.829-2.44-9.507-5.156-13.996-8.111c-9.331-6.112-17.894-13.317-25.515-21.428c-3.71-3.911-7.18-8.061-10.425-12.374
	c-6.627-8.891-12.261-18.548-16.687-28.873c-2.125-4.929-3.986-10.01-5.533-15.191c-3.156-10.5-5.131-21.491-5.759-32.846
	c-0.163-2.666-0.239-5.395-0.239-8.111c0-2.716,0.075-5.42,0.239-8.086c0.629-11.368,2.603-22.359,5.759-32.846
	c1.547-5.194,3.408-10.274,5.533-15.203c4.426-10.312,10.048-19.982,16.687-28.86c3.232-4.326,6.715-8.476,10.425-12.387
	c7.621-8.111,16.184-15.317,25.515-21.441c4.489-2.955,9.167-5.671,13.996-8.098c9.846-4.98,20.359-8.84,31.35-11.418
	c5.206-1.22,10.525-2.163,15.933-2.779C244.795,114.221,250.366,113.894,256,113.894z"/>
<path d="M272.651,127.453c-2.111,0-4.249-0.532-6.213-1.651c-6.035-3.438-8.14-11.118-4.701-17.151
	c6.657-11.685,10.034-23.024,10.034-33.701c0-17.104-8.712-32.768-15.771-42.655c-7.053,9.882-15.768,25.55-15.768,42.655
	c0,10.678,3.376,22.017,10.034,33.701c3.438,6.034,1.334,13.712-4.701,17.151c-6.029,3.439-13.711,1.335-17.151-4.701
	c-8.847-15.525-13.332-31.052-13.332-46.151c0-39.271,30.784-70.043,32.094-71.334c4.896-4.821,12.755-4.821,17.649,0
	c1.31,1.29,32.094,32.063,32.094,71.334c0,15.099-4.484,30.626-13.332,46.151C281.268,125.17,277.021,127.453,272.651,127.453z"/>
<path d="M192.049,141.648c-2.88,0-5.775-0.983-8.141-2.995c-13.618-11.58-23.136-24.637-28.293-38.805
	c-13.416-36.881,4.99-76.324,5.781-77.986c2.953-6.206,10.338-8.891,16.585-6.034c1.673,0.765,41.118,19.16,54.547,56.024
	c5.165,14.195,6.265,30.312,3.273,47.911c-1.164,6.846-7.66,11.459-14.505,10.289c-6.846-1.164-11.452-7.66-10.289-14.505
	c2.252-13.244,1.543-25.05-2.111-35.089c-5.846-16.051-19.39-27.787-29.405-34.662c-3.251,11.696-6.085,29.393-0.241,45.454
	c3.646,10.021,10.695,19.523,20.952,28.245c5.29,4.499,5.932,12.436,1.434,17.727C199.147,140.144,195.609,141.648,192.049,141.648z
	"/>
<path d="M152.543,171.189c-1.446,0-2.917-0.251-4.354-0.782c-16.735-6.177-30.16-15.193-39.906-26.796
	c-25.243-30.075-21.437-73.443-21.262-75.275c0.651-6.84,6.694-11.901,13.521-11.343c1.833,0.146,45.186,3.935,70.424,34.002
	c9.701,11.548,16.251,26.324,19.464,43.915c1.249,6.832-3.278,13.383-10.11,14.63c-6.827,1.252-13.383-3.276-14.63-10.11
	c-2.419-13.242-7.124-24.095-13.984-32.26c-10.992-13.096-27.732-19.498-39.491-22.533c0.946,12.104,4.34,29.708,15.33,42.803
	c6.896,8.209,16.774,14.729,29.356,19.375c6.516,2.404,9.848,9.636,7.442,16.152C162.466,168.044,157.657,171.189,152.543,171.189z"
	/>
<path d="M125.432,212.433c-0.018,0-0.034,0-0.052,0c-17.858-0.073-33.554-3.95-46.65-11.524
	c-33.987-19.63-45.249-61.675-45.713-63.456c-1.729-6.652,2.203-13.459,8.829-15.286c1.773-0.488,43.832-11.749,77.811,7.873
	c13.086,7.544,24.297,19.19,33.314,34.609c3.506,5.995,1.489,13.697-4.507,17.203c-5.995,3.511-13.698,1.488-17.203-4.507
	c-6.783-11.598-14.915-20.184-24.173-25.521c-14.717-8.497-32.688-8.793-44.809-7.639c5.034,11.047,14.241,26.407,29.035,34.95
	c9.255,5.353,20.749,8.095,34.164,8.147c6.945,0.028,12.553,5.681,12.525,12.625C137.978,206.837,132.353,212.433,125.432,212.433z"
	/>
<path d="M84.416,266.051c-4.716,0-9.33-0.397-13.833-1.196C31.941,258.05,6.97,222.393,5.925,220.878
	c-3.902-5.659-2.536-13.401,3.066-17.385c1.496-1.066,37.161-26.028,75.803-19.226c14.88,2.616,29.393,9.721,43.132,21.118
	c5.346,4.433,6.084,12.361,1.65,17.707c-4.433,5.344-12.359,6.085-17.707,1.65c-10.332-8.57-20.908-13.854-31.433-15.704
	c-16.828-2.959-33.768,2.896-44.731,8.13c8.508,8.662,22.423,19.958,39.256,22.923c10.509,1.862,22.264,0.508,34.95-4.022
	c6.54-2.336,13.735,1.073,16.071,7.613c2.336,6.539-1.073,13.736-7.613,16.071C106.624,263.945,95.255,266.051,84.416,266.051z"/>
<path d="M71.111,328.918c-33.002,0-60.804-19.474-62.121-20.412c-5.601-3.985-6.964-11.728-3.063-17.386
	c1.045-1.514,26.017-37.156,64.672-43.964c14.876-2.637,30.958-0.917,47.783,5.111c6.538,2.343,9.939,9.542,7.597,16.08
	c-2.343,6.539-9.548,9.936-16.08,7.597c-12.654-4.533-24.406-5.885-34.923-4.02c-16.741,2.949-30.696,14.264-39.241,22.931
	c10.959,5.231,27.88,11.085,44.697,8.122c10.519-1.857,21.101-7.144,31.447-15.71c5.348-4.43,13.278-3.685,17.706,1.665
	c4.429,5.349,3.685,13.277-1.665,17.706c-13.742,11.381-28.25,18.482-43.118,21.107C80.176,328.559,75.596,328.918,71.111,328.918z"
	/>
<path d="M72.273,393.482c-16.802,0-29.472-3.399-30.428-3.663c-6.625-1.828-10.554-8.635-8.827-15.285
	c0.463-1.781,11.725-43.827,45.722-63.449c13.076-7.55,28.764-11.426,46.625-11.518c0.023,0,0.045,0,0.067,0
	c6.915,0,12.539,5.587,12.574,12.51c0.035,6.945-5.566,12.604-12.51,12.641c-13.437,0.069-24.935,2.811-34.181,8.149
	c-14.721,8.496-23.956,23.907-29.015,34.975c12.081,1.163,29.994,0.875,44.783-7.663c9.264-5.349,17.402-13.936,24.182-25.518
	c3.51-5.992,11.212-8.007,17.207-4.498c5.995,3.51,8.007,11.213,4.498,17.207c-9.014,15.393-20.221,27.032-33.31,34.591
	C104.001,391,86.628,393.482,72.273,393.482z"/>
<path d="M99.526,455.048c-6.418,0-11.886-4.884-12.505-11.384c-0.175-1.832-3.981-45.202,21.261-75.261
	c9.739-11.608,23.169-20.631,39.907-26.81c6.51-2.408,13.746,0.924,16.152,7.442c2.406,6.515-0.926,13.747-7.442,16.152
	c-12.581,4.645-22.457,11.168-29.353,19.387c-10.992,13.088-14.386,30.683-15.332,42.792c11.753-3.034,28.495-9.434,39.487-22.53
	c6.861-8.176,11.567-19.038,13.986-32.278c1.246-6.832,7.799-11.363,14.63-10.11c6.833,1.247,11.359,7.798,10.11,14.63
	c-3.213,17.586-9.761,32.366-19.463,43.926c-25.238,30.069-68.591,33.857-70.425,34.003
	C100.201,455.034,99.861,455.048,99.526,455.048z"/>
<path d="M172.758,497.313c-4.706,0.001-9.211-2.652-11.363-7.175c-0.791-1.661-19.197-41.105-5.781-77.995
	c5.152-14.16,14.671-27.211,28.293-38.796c5.293-4.499,13.228-3.857,17.727,1.434c4.498,5.292,3.857,13.228-1.434,17.727
	c-10.26,8.725-17.31,18.224-20.952,28.234c-5.808,15.972-2.972,33.714,0.27,45.447c10.006-6.876,23.533-18.613,29.377-34.66
	c3.652-10.036,4.362-21.842,2.11-35.086c-1.164-6.846,3.442-13.341,10.289-14.505c6.857-1.167,13.34,3.441,14.505,10.289
	c2.994,17.598,1.894,33.717-3.271,47.906c-13.432,36.88-52.877,55.275-54.55,56.04C176.288,496.946,174.509,497.313,172.758,497.313
	z"/>
<path d="M256,511.999c-3.188,0-6.377-1.205-8.825-3.615c-1.31-1.29-32.094-32.063-32.094-71.334
	c0-15.071,4.483-30.599,13.326-46.153c3.432-6.041,11.11-8.147,17.148-4.717c6.037,3.432,8.149,11.109,4.717,17.148
	c-6.661,11.718-10.039,23.064-10.039,33.723c0,17.104,8.712,32.768,15.771,42.655c7.053-9.882,15.768-25.55,15.768-42.655
	c0-10.66-3.379-22.005-10.039-33.723c-3.432-6.039-1.32-13.715,4.717-17.148c6.041-3.431,13.715-1.32,17.148,4.717
	c8.842,15.554,13.326,31.082,13.326,46.153c0,39.271-30.784,70.043-32.094,71.334C262.377,510.795,259.188,511.999,256,511.999z"/>
<path d="M339.253,497.313c-1.752,0-3.529-0.367-5.222-1.142c-1.672-0.765-41.117-19.16-54.547-56.038
	c-5.16-14.177-6.264-30.292-3.287-47.898c1.158-6.848,7.651-11.457,14.495-10.303c6.848,1.158,11.461,7.648,10.303,14.495
	c-2.242,13.261-1.529,25.07,2.123,35.101c5.814,15.967,19.387,27.737,29.411,34.642c3.247-11.696,6.066-29.378,0.224-45.43
	c-3.659-10.034-10.71-19.539-20.952-28.246c-5.29-4.498-5.934-12.436-1.436-17.727c4.499-5.29,12.434-5.933,17.727-1.436
	c13.599,11.562,23.118,24.615,28.29,38.798c13.433,36.901-4.973,76.345-5.764,78.006
	C348.464,494.659,343.957,497.313,339.253,497.313z"/>
<path d="M412.485,455.048c-0.337,0-0.674-0.014-1.016-0.042c-1.833-0.146-45.2-3.935-70.426-34.005
	c-9.722-11.586-16.271-26.369-19.464-43.935c-1.241-6.835,3.291-13.38,10.124-14.621c6.825-1.237,13.379,3.29,14.621,10.124
	c2.401,13.214,7.105,24.07,13.985,32.268c10.924,13.02,27.704,19.437,39.485,22.497c-0.948-12.101-4.345-29.681-15.327-42.757
	c-6.895-8.218-16.777-14.742-29.369-19.391c-6.516-2.404-9.848-9.636-7.442-16.152c2.406-6.516,9.639-9.85,16.152-7.442
	c16.75,6.183,30.183,15.206,39.924,26.814c25.238,30.055,21.432,73.425,21.257,75.257
	C424.372,450.162,418.904,455.046,412.485,455.048z"/>
<path d="M439.731,393.482c-14.355,0.001-31.726-2.481-47.391-11.521c-13.092-7.56-24.299-19.199-33.313-34.592
	c-3.508-5.993-1.495-13.697,4.498-17.207c5.992-3.51,13.697-1.494,17.207,4.498c6.782,11.582,14.918,20.168,24.183,25.518
	c14.719,8.495,32.687,8.785,44.807,7.628c-5.031-11.045-14.235-26.402-29.035-34.939c-9.249-5.341-20.749-8.083-34.186-8.151
	c-6.944-0.035-12.546-5.694-12.51-12.641c0.035-6.923,5.659-12.51,12.574-12.51c0.023,0,0.044,0,0.067,0
	c17.861,0.092,33.549,3.967,46.628,11.519c34.01,19.621,45.258,61.671,45.72,63.452c1.727,6.65-2.203,13.453-8.825,15.281
	C469.2,390.083,456.53,393.482,439.731,393.482z"/>
<path d="M440.893,328.92c-4.484,0-9.064-0.36-13.688-1.174c-14.859-2.624-29.367-9.729-43.124-21.123
	c-5.349-4.429-6.095-12.356-1.665-17.706c4.428-5.348,12.354-6.096,17.706-1.665c10.359,8.579,20.941,13.869,31.452,15.725
	c16.73,2.946,33.714-2.929,44.704-8.161c-8.507-8.654-22.408-19.929-39.225-22.891c-10.544-1.874-22.296-0.517-34.95,4.018
	c-6.537,2.341-13.737-1.058-16.08-7.597c-2.343-6.538,1.059-13.737,7.597-16.08c16.829-6.032,32.916-7.748,47.811-5.109
	c38.641,6.806,63.602,42.45,64.645,43.964c3.901,5.658,2.536,13.398-3.062,17.383C501.691,309.443,473.899,328.918,440.893,328.92z"
	/>
<path d="M427.59,266.053c-10.84,0.001-22.21-2.105-33.959-6.303c-6.54-2.335-9.949-9.532-7.613-16.071
	c2.335-6.542,9.538-9.951,16.071-7.613c12.691,4.532,24.447,5.886,34.949,4.024c16.838-2.965,30.75-14.26,39.261-22.926
	c-10.957-5.233-27.892-11.095-44.731-8.129c-10.513,1.849-21.09,7.136-31.438,15.718c-5.346,4.433-13.276,3.695-17.707-1.651
	c-4.433-5.346-3.695-13.274,1.651-17.707c13.755-11.407,28.268-18.516,43.135-21.129c38.657-6.809,74.3,18.161,75.801,19.227
	c5.598,3.984,6.964,11.723,3.066,17.381c-1.044,1.514-26.005,37.175-64.662,43.983C436.915,265.654,432.301,266.053,427.59,266.053z
	"/>
<path d="M386.567,212.433c-6.921,0-12.546-5.596-12.574-12.525c-0.028-6.944,5.58-12.598,12.525-12.625
	c13.415-0.054,24.909-2.795,34.158-8.145c14.732-8.506,23.967-23.918,29.025-34.988c-12.081-1.161-29.991-0.868-44.786,7.672
	c-9.263,5.339-17.397,13.926-24.18,25.524c-3.505,5.995-11.204,8.015-17.203,4.507c-5.996-3.506-8.013-11.208-4.507-17.203
	c9.018-15.421,20.228-27.066,33.322-34.613c33.988-19.62,76.033-8.356,77.805-7.87c6.625,1.827,10.556,8.632,8.829,15.283
	c-0.462,1.781-11.711,43.83-45.721,63.464c-13.087,7.57-28.783,11.447-46.641,11.519
	C386.602,212.433,386.583,212.433,386.567,212.433z"/>
<path d="M359.456,171.189c-5.114,0-9.923-3.144-11.798-8.224c-2.406-6.515,0.926-13.747,7.442-16.152
	c12.593-4.649,22.474-11.169,29.371-19.38c10.927-13.018,14.331-30.66,15.295-42.792c-11.754,3.037-28.478,9.436-39.455,22.52
	c-6.882,8.193-11.586,19.044-13.986,32.255c-1.241,6.836-7.787,11.37-14.62,10.126c-6.835-1.241-11.367-7.787-10.126-14.62
	c3.193-17.574,9.742-32.355,19.468-43.933c25.221-30.062,68.588-33.851,70.421-33.997c6.833-0.578,12.869,4.501,13.521,11.343
	c0.175,1.832,3.981,45.2-21.258,75.271c-9.746,11.603-23.177,20.618-39.922,26.8C362.373,170.938,360.902,171.189,359.456,171.189z"
	/>
<path d="M319.95,141.66c-3.559,0-7.094-1.501-9.581-4.424c-4.502-5.288-3.864-13.224,1.423-17.727
	c10.248-8.726,17.301-18.238,20.96-28.272c5.812-15.959,2.979-33.696-0.263-45.425c-10.005,6.875-23.532,18.608-29.376,34.648
	c-3.648,10.027-4.362,21.837-2.12,35.097c1.158,6.847-3.456,13.337-10.303,14.495c-6.843,1.149-13.337-3.454-14.495-10.303
	c-2.977-17.607-1.871-33.72,3.286-47.895c13.432-36.867,52.876-55.262,54.549-56.027c6.244-2.857,13.634-0.174,16.585,6.034
	c0.791,1.661,19.199,41.106,5.767,77.989c-5.17,14.173-14.687,27.229-28.287,38.81C325.729,140.674,322.832,141.66,319.95,141.66z"
	/>
<path d="M256,410.669c-6.127,0-12.236-0.36-18.159-1.071c-5.671-0.646-11.518-1.665-17.305-3.021
	c-11.857-2.78-23.347-6.962-34.155-12.428c-5.194-2.622-10.322-5.593-15.235-8.828c-10.092-6.611-19.441-14.461-27.766-23.322
	c-3.873-4.084-7.692-8.617-11.31-13.428c-7.351-9.86-13.462-20.436-18.195-31.476c-2.338-5.424-4.369-10.997-6.026-16.545
	c-3.485-11.592-5.593-23.626-6.264-35.751c-0.171-2.751-0.259-5.741-0.259-8.806c0-3.049,0.088-6.031,0.263-8.86
	c0.666-12.06,2.778-24.095,6.267-35.696c1.645-5.518,3.676-11.099,6.027-16.556c4.763-11.095,10.878-21.671,18.166-31.414
	c3.542-4.743,7.369-9.292,11.37-13.51c8.272-8.804,17.618-16.657,27.738-23.299c4.935-3.247,10.07-6.217,15.252-8.821
	c10.808-5.466,22.298-9.651,34.124-12.424c5.788-1.358,11.636-2.378,17.381-3.031c11.696-1.405,24.397-1.413,36.243,0.009
	c5.671,0.645,11.519,1.664,17.307,3.021c11.832,2.773,23.328,6.964,34.164,12.458c5.09,2.538,10.242,5.51,15.236,8.796
	c10.193,6.718,19.531,14.57,27.76,23.342c3.955,4.167,7.782,8.716,11.33,13.467c7.282,9.736,13.396,20.311,18.167,31.423
	c2.3,5.304,4.335,10.899,6.03,16.585c3.471,11.474,5.581,23.497,6.26,35.683c0.174,2.819,0.262,5.79,0.262,8.828
	c0,3.066-0.088,6.054-0.263,8.886c-0.668,12.038-2.778,24.069-6.266,35.678c-1.646,5.522-3.677,11.103-6.029,16.56
	c-4.724,11.018-10.835,21.594-18.155,31.412c-3.649,4.853-7.468,9.385-11.383,13.512c-8.259,8.805-17.608,16.66-27.736,23.293
	c-4.941,3.251-10.085,6.223-15.266,8.822c-10.756,5.453-22.251,9.64-34.115,12.419c-5.787,1.356-11.633,2.375-17.376,3.029
	C268.236,410.309,262.126,410.669,256,410.669z M256,126.469c-5.129,0-10.231,0.299-15.166,0.892
	c-4.85,0.552-9.723,1.402-14.558,2.538c-9.883,2.318-19.487,5.815-28.546,10.397c-4.342,2.181-8.624,4.659-12.759,7.38
	c-8.481,5.567-16.304,12.14-23.262,19.547c-3.366,3.549-6.554,7.336-9.513,11.3c-6.105,8.163-11.221,17.008-15.208,26.297
	c-1.971,4.572-3.663,9.221-5.038,13.833c-2.929,9.729-4.692,19.795-5.255,29.95c-0.147,2.396-0.22,4.855-0.22,7.39
	c0,2.55,0.073,5.019,0.216,7.336c0.566,10.222,2.331,20.29,5.25,30.002c1.385,4.635,3.077,9.282,5.039,13.831
	c3.964,9.248,9.083,18.101,15.221,26.335c3.013,4.006,6.208,7.8,9.467,11.236c7.006,7.458,14.825,14.024,23.28,19.563
	c4.138,2.724,8.428,5.21,12.775,7.404c9.035,4.57,18.639,8.063,28.552,10.39c4.835,1.132,9.709,1.982,14.487,2.528
	c10.014,1.201,20.534,1.192,30.403,0.009c4.849-0.553,9.723-1.403,14.561-2.538c9.914-2.323,19.513-5.819,28.532-10.391
	c4.356-2.183,8.639-4.66,12.783-7.387c8.484-5.558,16.297-12.124,23.243-19.527c3.306-3.485,6.501-7.28,9.546-11.328
	c6.107-8.194,11.226-17.047,15.181-26.272c1.972-4.579,3.664-9.228,5.039-13.839c2.927-9.738,4.692-19.802,5.255-29.939
	c0.147-2.396,0.22-4.864,0.22-7.414c0-2.535-0.073-4.995-0.216-7.31c-0.001-0.026-0.003-0.053-0.004-0.079
	c-0.566-10.207-2.329-20.264-5.239-29.889c-1.425-4.78-3.114-9.424-5.034-13.853c-4.008-9.332-9.122-18.177-15.221-26.332
	c-2.965-3.971-6.154-7.759-9.479-11.265c-6.931-7.388-14.752-13.963-23.297-19.595c-4.154-2.734-8.429-5.201-12.701-7.331
	c-9.125-4.625-18.724-8.126-28.607-10.441c-4.838-1.134-9.711-1.984-14.487-2.529C266.23,126.769,261.129,126.469,256,126.469z"/>
<path d="M249.901,350.809c-6.944,0-12.575-5.631-12.575-12.575c0-6.944,5.631-12.575,12.575-12.575
	c39.814,0,72.207-32.392,72.207-72.207c0-6.944,5.631-12.575,12.575-12.575s12.575,5.631,12.575,12.575
	C347.258,307.136,303.583,350.809,249.901,350.809z"/>
<path d="M331.724,223.891c-6.335,0-11.784-4.774-12.486-11.216l-0.239-2.201c-0.752-6.904,4.237-13.111,11.14-13.862
	c6.903-0.753,13.111,4.237,13.862,11.14l0.239,2.201c0.752,6.904-4.237,13.111-11.14,13.862
	C332.639,223.865,332.179,223.891,331.724,223.891z"/>
<g>
</g>
<g>
</g>
<g>
</g>
<g>
</g>
<g>
</g>
<g>
</g>
<g>
</g>
<g>
</g>
<g>
</g>
<g>
</g>
<g>
</g>
<g>
</g>
<g>
</g>
<g>
</g>
<g>
</g>
</svg>
